<svg viewBox="0 0 40 40" fill="none" xmlns="http://www.w3.org/2000/svg">
<rect width="39.6621" height="39.6621" fill="#DFDFDF"/>
<path d="M26.367 17.5778H19.1761C18.2936 17.5778 17.5781 18.2932 17.5781 19.1758V26.3667C17.5781 27.2492 18.2936 27.9647 19.1761 27.9647H26.367C27.2496 27.9647 27.965 27.2492 27.965 26.3667V19.1758C27.965 18.2932 27.2496 17.5778 26.367 17.5778Z" stroke="#707070" stroke-width="1.59798" stroke-linecap="round" stroke-linejoin="round"/>
<path d="M14.3813 22.3717H13.5824C13.1585 22.3717 12.7521 22.2034 12.4524 21.9037C12.1527 21.604 11.9844 21.1976 11.9844 20.7737V13.5828C11.9844 13.159 12.1527 12.7526 12.4524 12.4529C12.7521 12.1532 13.1585 11.9848 13.5824 11.9848H20.7733C21.1971 11.9848 21.6035 12.1532 21.9032 12.4529C22.2029 12.7526 22.3712 13.159 22.3712 13.5828V14.3818" stroke="#707070" stroke-width="1.59798" stroke-linecap="round" stroke-linejoin="round"/>
</svg>
