<svg width="41" height="40" viewBox="0 0 41 40" fill="none" xmlns="http://www.w3.org/2000/svg">
<rect x="0.446289" width="39.6621" height="39.6621" fill="#FB6767"/>
<path d="M13.2295 15.1808H14.8275H27.6113" stroke="#871E1E" stroke-width="1.59798" stroke-linecap="round" stroke-linejoin="round"/>
<path d="M17.2241 15.1808V13.5828C17.2241 13.159 17.3925 12.7526 17.6922 12.4529C17.9918 12.1532 18.3983 11.9849 18.8221 11.9849H22.0181C22.4419 11.9849 22.8483 12.1532 23.148 12.4529C23.4477 12.7526 23.616 13.159 23.616 13.5828V15.1808M26.013 15.1808V26.3667C26.013 26.7905 25.8447 27.197 25.545 27.4966C25.2453 27.7963 24.8388 27.9647 24.415 27.9647H16.4251C16.0013 27.9647 15.5949 27.7963 15.2952 27.4966C14.9955 27.197 14.8271 26.7905 14.8271 26.3667V15.1808H26.013Z" stroke="#871E1E" stroke-width="1.59798" stroke-linecap="round" stroke-linejoin="round"/>
<path d="M18.8223 19.1758V23.9697" stroke="#871E1E" stroke-width="1.59798" stroke-linecap="round" stroke-linejoin="round"/>
<path d="M22.0186 19.1758V23.9697" stroke="#871E1E" stroke-width="1.59798" stroke-linecap="round" stroke-linejoin="round"/>
</svg>
