<svg viewBox="0 0 40 40" fill="none" xmlns="http://www.w3.org/2000/svg">
<rect width="39.6621" height="39.6621" fill="#FEC476"/>
<path d="M19.0634 14.0928H14.0041C13.6207 14.0928 13.2531 14.2451 12.982 14.5162C12.7109 14.7873 12.5586 15.155 12.5586 15.5384V25.6569C12.5586 26.0403 12.7109 26.408 12.982 26.679C13.2531 26.9501 13.6207 27.1024 14.0041 27.1024H24.1227C24.506 27.1024 24.8737 26.9501 25.1448 26.679C25.4159 26.408 25.5682 26.0403 25.5682 25.6569V20.5976" stroke="#8A5815" stroke-width="1.45348" stroke-linecap="round" stroke-linejoin="round"/>
<path d="M24.4844 13.0087C24.772 12.7212 25.1619 12.5597 25.5686 12.5597C25.9752 12.5597 26.3652 12.7212 26.6527 13.0087C26.9402 13.2963 27.1018 13.6862 27.1018 14.0929C27.1018 14.4995 26.9402 14.8895 26.6527 15.177L19.7865 22.0432L16.8955 22.7659L17.6183 19.8749L24.4844 13.0087Z" stroke="#8A5815" stroke-width="1.45348" stroke-linecap="round" stroke-linejoin="round"/>
</svg>
