<svg width="197" height="36" viewBox="0 0 197 36" fill="none" xmlns="http://www.w3.org/2000/svg">
<path d="M5.27344 17.1802V35H10.3931V17.1802H16.3696V12.3242H10.3931V7.90771C10.3931 7.20459 10.5908 6.6333 11.0083 6.21582C11.4258 5.79834 11.9971 5.57861 12.7002 5.57861H16.3696V0.700684H11.8872C10.5469 0.700684 9.38232 0.986328 8.39355 1.51367C7.38281 2.04102 6.61377 2.81006 6.08643 3.79883C5.53711 4.7876 5.27344 5.93018 5.27344 7.22656V12.3242H0.637207V17.1802H5.27344ZM30.1465 11.8188C27.9053 11.8188 25.8838 12.3462 24.082 13.4009C22.2803 14.4556 20.8521 15.8838 19.8413 17.6855C18.8306 19.4873 18.3252 21.5088 18.3252 23.7061C18.3252 25.8594 18.8306 27.8369 19.8633 29.6387C20.874 31.4404 22.3022 32.8687 24.104 33.9233C25.9058 34.978 27.9053 35.5054 30.1465 35.5054C32.3877 35.5054 34.4092 34.978 36.2109 33.9233C38.0127 32.8687 39.4189 31.4404 40.4517 29.6387C41.4624 27.8369 41.9897 25.8594 41.9897 23.7061C41.9897 21.5088 41.4624 19.4873 40.4517 17.6855C39.4409 15.8838 38.0127 14.4556 36.2109 13.4009C34.4092 12.3462 32.3877 11.8188 30.1465 11.8188ZM30.1465 30.4517C28.8281 30.4517 27.6855 30.166 26.6748 29.5728C25.6641 29.0015 24.873 28.1885 24.3018 27.1558C23.7305 26.145 23.4448 24.9805 23.4448 23.7061C23.4448 22.4097 23.7085 21.2451 24.2798 20.1904C24.8511 19.1577 25.6421 18.3447 26.6528 17.7515C27.6636 17.1802 28.8281 16.8726 30.1465 16.8726C31.4429 16.8726 32.6074 17.1802 33.6182 17.7515C34.6289 18.3447 35.4419 19.1577 36.0132 20.1904C36.5845 21.2451 36.8701 22.4097 36.8701 23.7061C36.8701 24.9805 36.5845 26.145 36.0132 27.1558C35.4419 28.1885 34.6289 29.0015 33.6182 29.5728C32.6074 30.166 31.4429 30.4517 30.1465 30.4517ZM57.2607 11.8188C55.0195 11.8188 52.998 12.3462 51.1963 13.4009C49.3945 14.4556 47.9663 15.8838 46.9556 17.6855C45.9448 19.4873 45.4395 21.5088 45.4395 23.7061C45.4395 25.8594 45.9448 27.8369 46.9775 29.6387C47.9883 31.4404 49.4165 32.8687 51.2183 33.9233C53.02 34.978 55.0195 35.5054 57.2607 35.5054C59.502 35.5054 61.5234 34.978 63.3252 33.9233C65.127 32.8687 66.5332 31.4404 67.5659 29.6387C68.5767 27.8369 69.104 25.8594 69.104 23.7061C69.104 21.5088 68.5767 19.4873 67.5659 17.6855C66.5552 15.8838 65.127 14.4556 63.3252 13.4009C61.5234 12.3462 59.502 11.8188 57.2607 11.8188ZM57.2607 30.4517C55.9424 30.4517 54.7998 30.166 53.7891 29.5728C52.7783 29.0015 51.9873 28.1885 51.416 27.1558C50.8447 26.145 50.5591 24.9805 50.5591 23.7061C50.5591 22.4097 50.8228 21.2451 51.394 20.1904C51.9653 19.1577 52.7563 18.3447 53.7671 17.7515C54.7778 17.1802 55.9424 16.8726 57.2607 16.8726C58.5571 16.8726 59.7217 17.1802 60.7324 17.7515C61.7432 18.3447 62.5562 19.1577 63.1274 20.1904C63.6987 21.2451 63.9844 22.4097 63.9844 23.7061C63.9844 24.9805 63.6987 26.145 63.1274 27.1558C62.5562 28.1885 61.7432 29.0015 60.7324 29.5728C59.7217 30.166 58.5571 30.4517 57.2607 30.4517ZM95.8228 0.700684H90.6812V14.3018C89.8022 13.5107 88.7695 12.9175 87.605 12.478C86.4404 12.0386 85.188 11.8188 83.8477 11.8188C81.6724 11.8188 79.7388 12.3462 78.0249 13.3789C76.311 14.4336 74.9707 15.8618 74.0039 17.6636C73.0371 19.4873 72.5537 21.5088 72.5537 23.7061C72.5537 25.8813 73.0371 27.8589 74.0039 29.6606C74.9707 31.4624 76.311 32.8906 78.0249 33.9453C79.7388 35 81.6943 35.5054 83.8477 35.5054C85.188 35.5054 86.4404 35.2856 87.627 34.8462C88.8135 34.4067 89.8462 33.7915 90.7251 32.9785V35H95.8228V0.700684ZM90.8569 23.7061C90.8569 24.9805 90.5713 26.145 90.022 27.1777C89.4507 28.2104 88.6816 29.0234 87.6709 29.6167C86.6602 30.21 85.5176 30.4956 84.2432 30.4956C82.9688 30.4956 81.8481 30.21 80.8374 29.6167C79.8267 29.0234 79.0576 28.2104 78.5083 27.1777C77.937 26.145 77.6733 24.9805 77.6733 23.7061C77.6733 22.4097 77.937 21.2451 78.5083 20.1904C79.0576 19.1357 79.8267 18.3228 80.8374 17.7295C81.8262 17.1362 82.9688 16.8286 84.2432 16.8286C85.5176 16.8286 86.6602 17.1362 87.6709 17.7295C88.6816 18.3228 89.4507 19.1357 90.022 20.1904C90.5713 21.2451 90.8569 22.4097 90.8569 23.7061ZM102.195 0.700684V35H107.336V0.700684H102.195ZM131.221 20.3662C131.221 18.7402 130.825 17.2681 130.056 15.9717C129.265 14.6753 128.188 13.6646 126.782 12.9175C125.376 12.1924 123.794 11.8188 121.992 11.8188C120.322 11.8188 118.828 12.1704 117.488 12.8516C116.147 13.5327 115.093 14.4775 114.302 15.6641C113.511 16.8506 113.049 18.1909 112.961 19.6631H117.927C118.081 18.8281 118.542 18.147 119.29 17.6196C120.037 17.0923 120.938 16.8286 121.992 16.8286C122.783 16.8286 123.486 16.9824 124.124 17.29C124.761 17.5977 125.266 18.0371 125.64 18.5645C125.991 19.1138 126.189 19.707 126.189 20.3662V21.0254L120.234 21.5527C117.795 21.7725 115.884 22.4536 114.5 23.5962C113.093 24.7607 112.412 26.4087 112.412 28.5181C112.412 29.8804 112.72 31.0889 113.379 32.1436C114.038 33.1982 114.961 34.0332 116.147 34.6265C117.334 35.2197 118.696 35.5054 120.234 35.5054C122.717 35.5054 124.695 34.7803 126.189 33.3301V35H131.221V20.3662ZM126.189 27.0898C126.189 27.8809 125.969 28.562 125.574 29.1553C125.156 29.7705 124.563 30.2319 123.816 30.5835C123.069 30.9351 122.19 31.0889 121.223 31.0889C120.037 31.0889 119.136 30.8472 118.499 30.3198C117.839 29.8145 117.532 29.1772 117.532 28.3862C117.532 26.7163 118.674 25.7715 120.959 25.5518L126.189 25.0903V27.0898ZM160.752 23.7061C160.752 21.5088 160.269 19.4873 159.302 17.6636C158.335 15.8618 156.995 14.4336 155.281 13.3789C153.567 12.3462 151.611 11.8188 149.458 11.8188C148.096 11.8188 146.843 12.0386 145.679 12.478C144.514 12.9175 143.503 13.5107 142.625 14.3018V0.700684H137.483V35H142.581V32.9785C143.459 33.7915 144.47 34.4067 145.657 34.8462C146.843 35.2856 148.096 35.5054 149.458 35.5054C151.611 35.5054 153.545 35 155.259 33.9453C156.973 32.8906 158.335 31.4624 159.302 29.6606C160.269 27.8589 160.752 25.8813 160.752 23.7061ZM155.632 23.7061C155.632 24.9805 155.347 26.145 154.797 27.1777C154.226 28.2104 153.457 29.0234 152.446 29.6167C151.436 30.21 150.315 30.4956 149.062 30.4956C147.788 30.4956 146.646 30.21 145.635 29.6167C144.624 29.0234 143.833 28.2104 143.284 27.1777C142.712 26.145 142.449 24.9805 142.449 23.7061C142.449 22.4097 142.712 21.2451 143.284 20.1904C143.833 19.1357 144.602 18.3228 145.613 17.7295C146.624 17.1362 147.766 16.8286 149.062 16.8286C150.337 16.8286 151.458 17.1362 152.468 17.7295C153.457 18.3228 154.226 19.1357 154.797 20.1904C155.347 21.2451 155.632 22.4097 155.632 23.7061ZM186.548 25.8594C186.68 25.0684 186.768 24.3213 186.768 23.6182C186.768 21.4209 186.284 19.3994 185.339 17.5977C184.373 15.7959 183.054 14.3896 181.34 13.3569C179.626 12.3462 177.693 11.8188 175.518 11.8188C173.32 11.8188 171.365 12.3462 169.651 13.3789C167.937 14.4336 166.597 15.8618 165.63 17.6636C164.663 19.4653 164.18 21.4868 164.18 23.7061C164.18 25.9033 164.685 27.8809 165.696 29.6826C166.707 31.4844 168.091 32.9126 169.871 33.9453C171.65 35 173.672 35.5054 175.913 35.5054C178.022 35.5054 179.956 35.0439 181.67 34.0771C183.384 33.1104 184.746 31.814 185.779 30.144L181.516 27.4634C180.923 28.4302 180.154 29.1772 179.187 29.7266C178.22 30.2759 177.144 30.5396 175.913 30.5396C174.331 30.5396 172.969 30.1221 171.826 29.2651C170.684 28.4082 169.937 27.2656 169.563 25.8594H186.548ZM169.475 21.5088C169.783 20.0366 170.464 18.8721 171.541 18.0371C172.617 17.2021 173.958 16.7847 175.562 16.7847C177.1 16.7847 178.418 17.2021 179.473 18.0371C180.527 18.8721 181.23 20.0366 181.538 21.5088H169.475ZM191.624 0.700684V35H196.765V0.700684H191.624Z" fill="#300076"/>
</svg>
